# xmcd CD database file
#
# Track frame offsets:
#	150
#	18161
#	34097
#	49888
#	66187
#	87194
#	101647
#	117938
#	133751
#	151672
#	167669
#	184820
#
# Disc length: 2718 seconds
#
# Revision: 7
# Processed by: cddbd v1.5.2PL0 Copyright (c) Steve Scherf et al.
# Submitted via: CDex 1.70beta2
#
DISCID=960a9c0c
DTITLE=Annie Lennox, 1954- / A Christmas Cornucopia
DYEAR=2010
DGENRE=Christmas Songs
TTITLE0=James Montgomery / Angels from the realms of glory
TTITLE1=Traditional / God rest ye merry gentlemen
TTITLE2=See amid the winter's snow
TTITLE3=Traditional / Il est ne le divin enfant
TTITLE4=Traditional / The first Noel
TTITLE5=Traditional / Lullay lullay (the coventry carol)
TTITLE6=Traditional / The holly and the ivy
TTITLE7=Christina Rossetti / In the bleak midwinter
TTITLE8= Geoffrey Shaw / As Joseph was a walking (the cherry tree carol)
TTITLE9= Phillips Brooks / O little town of Bethlehem
TTITLE10= 	Joseph Mohr, Franz Gruber, John Freeman Young / Silent night
TTITLE11= Annie Lennox / Universal child
EXTD= YEAR: 2010
EXTT0=
EXTT1=
EXTT2=
EXTT3=
EXTT4=
EXTT5=
EXTT6=
EXTT7=
EXTT8=
EXTT9=
EXTT10=
EXTT11=
PLAYORDER=
.
